<svg width="40" height="40" viewBox="0 0 40 40" fill="none" xmlns="http://www.w3.org/2000/svg">
<path d="M24.5455 8.33337C26.0517 8.33337 27.2727 7.21409 27.2727 5.83337C27.2727 4.45266 26.0517 3.33337 24.5455 3.33337H15.4545C13.9483 3.33337 12.7273 4.45266 12.7273 5.83337C12.7273 7.21409 13.9483 8.33337 15.4545 8.33337M25.4098 8.20522C28.1107 13.1568 30 17.2955 30 22.9619V30C30 35.5155 28.7442 36.6667 22.7273 36.6667H17.2727C11.2557 36.6667 10 35.5155 10 30V22.9619C10 17.2955 11.8446 13.1427 14.5455 8.19112" stroke="#00AF39" stroke-width="2.5" stroke-linecap="round" stroke-linejoin="round"/>
<path d="M10 20C10.9524 20.8333 13.4868 20.7935 14.9739 20.4648C16.0108 20.2358 17.128 20.5045 17.8307 21.2732L19.205 22.7763C19.9955 23.641 21.1938 24.0515 22.3742 23.8622L24.1135 23.5832C25.0703 23.4297 26.022 23.8173 26.6733 24.5092C28.7043 26.6667 30 26.6667 30 26.6667" stroke="#00AF39" stroke-width="2.5" stroke-linejoin="round"/>
</svg>
