<svg width="40" height="40" viewBox="0 0 40 40" fill="none" xmlns="http://www.w3.org/2000/svg">
<path d="M19.037 12.2971C19.4923 11.8768 19.72 11.6667 20.0003 11.6667C20.2807 11.6667 20.5083 11.8768 20.9637 12.2971L21.74 13.0136C21.9792 13.2342 22.0987 13.3445 22.251 13.3918C22.4035 13.439 22.5682 13.4168 22.8975 13.3724L23.967 13.2281C24.5943 13.1434 24.908 13.1011 25.1348 13.2582C25.3615 13.4154 25.4163 13.7131 25.5258 14.3085L25.7123 15.3234C25.7698 15.6359 25.7987 15.7922 25.8928 15.9159C25.987 16.0396 26.134 16.114 26.4277 16.2627L27.3818 16.7457C27.9417 17.0289 28.2215 17.1705 28.3082 17.4249C28.3947 17.6792 28.2555 17.9507 27.9773 18.4939L27.503 19.4195C27.3568 19.7045 27.2838 19.8472 27.2838 20C27.2838 20.1529 27.3568 20.2955 27.503 20.5805L27.9773 21.5062C28.2555 22.0494 28.3947 22.3209 28.3082 22.5752C28.2215 22.8295 27.9417 22.9712 27.3818 23.2544L26.4277 23.7374C26.134 23.886 25.987 23.9605 25.8928 24.0842C25.7987 24.2079 25.7698 24.3642 25.7123 24.6767L25.5258 25.6915C25.4163 26.287 25.3615 26.5847 25.1348 26.7419C24.908 26.899 24.5943 26.8567 23.967 26.772L22.8975 26.6277C22.5682 26.5832 22.4035 26.561 22.251 26.6084C22.0987 26.6555 21.9792 26.7659 21.74 26.9865L20.9637 27.7029C20.5083 28.1232 20.2807 28.3334 20.0003 28.3334C19.72 28.3334 19.4923 28.1232 19.037 27.7029L18.2607 26.9865C18.0215 26.7659 17.902 26.6555 17.7497 26.6084C17.5972 26.561 17.4325 26.5832 17.1032 26.6277L16.0337 26.772C15.4063 26.8567 15.0926 26.899 14.8658 26.7419C14.6391 26.5847 14.5844 26.287 14.4749 25.6915L14.2883 24.6767C14.2308 24.3642 14.2021 24.2079 14.1079 24.0842C14.0137 23.9605 13.8667 23.886 13.5729 23.7374L12.6188 23.2544C12.059 22.9712 11.7792 22.8295 11.6926 22.5752C11.606 22.3209 11.7451 22.0494 12.0234 21.5062L12.4977 20.5805C12.6438 20.2955 12.7168 20.1529 12.7168 20C12.7168 19.8472 12.6438 19.7045 12.4977 19.4195L12.0234 18.4939C11.7451 17.9507 11.606 17.6792 11.6926 17.4249C11.7792 17.1705 12.059 17.0289 12.6188 16.7457L13.5729 16.2627C13.8667 16.114 14.0137 16.0396 14.1079 15.9159C14.2021 15.7922 14.2308 15.6359 14.2883 15.3234L14.4749 14.3085C14.5844 13.7131 14.6391 13.4154 14.8658 13.2582C15.0926 13.1011 15.4063 13.1434 16.0337 13.2281L17.1032 13.3724C17.4325 13.4168 17.5972 13.439 17.7497 13.3918C17.902 13.3445 18.0215 13.2342 18.2607 13.0136L19.037 12.2971Z" stroke="#00AF39" stroke-width="2.5"/>
<path d="M10.8049 6.09696C10.1949 5.42323 9.31339 4.99998 8.33301 4.99998C6.49206 4.99998 4.99967 6.49236 4.99967 8.33331C4.99967 9.3137 5.42292 10.1952 6.09666 10.8052M10.8049 6.09696C11.3402 6.68836 11.6663 7.47275 11.6663 8.33331C11.6663 10.1743 10.174 11.6666 8.33301 11.6666C7.47244 11.6666 6.68806 11.3405 6.09666 10.8052M10.8049 6.09696C13.4403 4.35048 16.6012 3.33331 19.9997 3.33331C29.2043 3.33331 36.6663 10.7952 36.6663 20C36.6663 23.3863 35.6563 26.5368 33.9213 29.1666M6.09666 10.8052C4.35017 13.4406 3.33301 16.6015 3.33301 20C3.33301 29.2046 10.7949 36.6666 19.9997 36.6666C23.3982 36.6666 26.559 35.6495 29.1945 33.903M29.1945 33.903C29.8043 34.5768 30.686 35 31.6663 35C33.5073 35 34.9997 33.5076 34.9997 31.6666C34.9997 29.8256 33.5073 28.3333 31.6663 28.3333C29.8253 28.3333 28.333 29.8256 28.333 31.6666C28.333 32.5271 28.6592 33.3116 29.1945 33.903Z" stroke="#00AF39" stroke-width="2.5" stroke-linecap="round"/>
</svg>
