<svg width="44" height="44" viewBox="0 0 44 44" fill="none" xmlns="http://www.w3.org/2000/svg">
<path d="M33 14.2853C34.6188 13.578 35.75 11.9627 35.75 10.0833L33 5.5H11L8.25 10.0833C8.25 11.9627 9.38126 13.578 11 14.2853M33 14.2853C32.4386 14.5306 31.8186 14.6667 31.1667 14.6667C28.6354 14.6667 26.5833 12.6146 26.5833 10.0833C26.5833 12.6146 24.5313 14.6667 22 14.6667C19.4687 14.6667 17.4167 12.6146 17.4167 10.0833C17.4167 12.6146 15.3647 14.6667 12.8333 14.6667C12.1815 14.6667 11.5614 14.5306 11 14.2853M33 14.2853V20.1667M11 14.2853V20.1667M5.5 22V31.1667M5.5 31.1667H9.16667C11.7594 31.1667 13.0558 31.1667 13.8612 31.9721C14.6667 32.7776 14.6667 34.074 14.6667 36.6667V38.5M5.5 31.1667V38.5M38.5 22V31.1667M38.5 31.1667H34.8333C32.2406 31.1667 30.9443 31.1667 30.1387 31.9721C29.3333 32.7776 29.3333 34.074 29.3333 36.6667V38.5M38.5 31.1667V38.5M12.8333 25.6667H22M22 25.6667H31.1667M22 25.6667V38.5M22 38.5H20.1667M22 38.5H23.8333" stroke="#00AF39" stroke-width="2.75" stroke-linecap="round" stroke-linejoin="round"/>
</svg>
