<svg width="528" height="784" viewBox="0 0 528 784" fill="none" xmlns="http://www.w3.org/2000/svg">
<path d="M527.489 455.09V783.84H417.349V444.94C417.349 390.16 403.839 348.75 376.669 320.85C349.569 292.88 311.739 278.93 263.169 278.93C214.599 278.93 176.759 292.88 149.669 320.85C122.499 348.75 108.989 390.16 108.989 444.94V783.84H0.529297V455.09C0.529297 396.95 11.4093 347.36 33.1793 306.38C54.8693 265.48 85.5493 234.58 125.059 213.62C164.649 192.73 210.949 182.29 264.049 182.29C317.149 182.29 363.459 192.74 402.969 213.62C442.479 234.58 473.159 265.48 494.929 306.38C516.619 347.36 527.509 396.95 527.509 455.09H527.489Z" fill="#283B31"/>
<path d="M97.469 547.63C97.469 547.63 164.179 500.98 233.399 527.57C302.619 554.15 342.749 567.7 430.519 522.05V614.84C430.519 614.84 366.319 659.98 289.069 641.42C211.829 622.86 184.739 591.26 97.459 650.95V547.62L97.469 547.63Z" fill="#283B31"/>
<path d="M368.14 0.160156H159.85C149.908 0.160156 141.85 8.21903 141.85 18.1602V98.9901C141.85 108.931 149.908 116.99 159.85 116.99H368.14C378.081 116.99 386.14 108.931 386.14 98.9901V18.1602C386.14 8.21903 378.081 0.160156 368.14 0.160156Z" fill="#00AF39"/>
</svg>
