<svg width="44" height="44" viewBox="0 0 44 44" fill="none" xmlns="http://www.w3.org/2000/svg">
<path d="M25.667 40.3334V14.6667M25.667 40.3334H14.667C9.48154 40.3334 6.88882 40.3334 5.27791 38.7225C3.66699 37.1115 3.66699 34.5188 3.66699 29.3334V14.6667C3.66699 9.48129 3.66699 6.88857 5.27791 5.27766C6.88882 3.66675 9.48154 3.66675 14.667 3.66675C19.8524 3.66675 22.4451 3.66675 24.056 5.27766C25.667 6.88857 25.667 9.48129 25.667 14.6667M25.667 40.3334H33.0003C36.4573 40.3334 38.1857 40.3334 39.2597 39.2594C40.3337 38.1855 40.3337 36.457 40.3337 33.0001V22.0001C40.3337 18.5431 40.3337 16.8146 39.2597 15.7407C38.1857 14.6667 36.4573 14.6667 33.0003 14.6667H25.667M11.917 20.1667H10.0837M19.2503 20.1667H17.417M11.917 12.8334H10.0837M11.917 27.5001H10.0837M19.2503 12.8334H17.417M19.2503 27.5001H17.417M33.917 27.5001H32.0837M33.917 20.1667H32.0837" stroke="#00AF39" stroke-width="2.75" stroke-linecap="round"/>
</svg>
