<svg width="44" height="44" viewBox="0 0 44 44" fill="none" xmlns="http://www.w3.org/2000/svg">
<path d="M27.042 3.66675C27.042 2.90736 26.4264 2.29175 25.667 2.29175C24.9076 2.29175 24.292 2.90736 24.292 3.66675H27.042ZM24.292 11.0001C24.292 11.7595 24.9076 12.3751 25.667 12.3751C26.4264 12.3751 27.042 11.7595 27.042 11.0001H24.292ZM19.7087 3.66675C19.7087 2.90736 19.0931 2.29175 18.3337 2.29175C17.5743 2.29175 16.9587 2.90736 16.9587 3.66675H19.7087ZM16.9587 11.0001C16.9587 11.7595 17.5743 12.3751 18.3337 12.3751C19.0931 12.3751 19.7087 11.7595 19.7087 11.0001H16.9587ZM4.12533 40.3334C4.12533 41.0928 4.74093 41.7084 5.50033 41.7084C6.25972 41.7084 6.87533 41.0928 6.87533 40.3334H4.12533ZM7.61465 9.23258L8.55849 10.2325L8.55849 10.2325L7.61465 9.23258ZM13.8293 8.70614C14.5875 8.66252 15.1667 8.01256 15.1231 7.25442C15.0794 6.49629 14.4295 5.91706 13.6713 5.96069L13.8293 8.70614ZM37.1253 40.3334C37.1253 41.0928 37.7409 41.7084 38.5003 41.7084C39.2597 41.7084 39.8753 41.0928 39.8753 40.3334H37.1253ZM36.3859 9.23258L35.4421 10.2324L35.4421 10.2325L36.3859 9.23258ZM30.3293 5.96069C29.5712 5.91706 28.9212 6.49629 28.8776 7.25442C28.834 8.01256 29.4132 8.66252 30.1713 8.70614L30.3293 5.96069ZM25.667 16.9584C24.9076 16.9584 24.292 17.574 24.292 18.3334C24.292 19.0928 24.9076 19.7084 25.667 19.7084V16.9584ZM29.3337 19.7084C30.0931 19.7084 30.7087 19.0928 30.7087 18.3334C30.7087 17.574 30.0931 16.9584 29.3337 16.9584V19.7084ZM25.667 24.2917C24.9076 24.2917 24.292 24.9074 24.292 25.6667C24.292 26.4261 24.9076 27.0417 25.667 27.0417V24.2917ZM29.3337 27.0417C30.0931 27.0417 30.7087 26.4261 30.7087 25.6667C30.7087 24.9074 30.0931 24.2917 29.3337 24.2917V27.0417ZM12.8337 24.2917C12.0743 24.2917 11.4587 24.9074 11.4587 25.6667C11.4587 26.4261 12.0743 27.0417 12.8337 27.0417V24.2917ZM16.5003 27.0417C17.2597 27.0417 17.8753 26.4261 17.8753 25.6667C17.8753 24.9074 17.2597 24.2917 16.5003 24.2917V27.0417ZM12.8337 16.9584C12.0743 16.9584 11.4587 17.574 11.4587 18.3334C11.4587 19.0928 12.0743 19.7084 12.8337 19.7084V16.9584ZM16.5003 19.7084C17.2597 19.7084 17.8753 19.0928 17.8753 18.3334C17.8753 17.574 17.2597 16.9584 16.5003 16.9584V19.7084ZM3.66699 38.9584C2.9076 38.9584 2.29199 39.574 2.29199 40.3334C2.29199 41.0928 2.9076 41.7084 3.66699 41.7084V38.9584ZM17.417 40.3334V41.7084C18.1764 41.7084 18.792 41.0928 18.792 40.3334H17.417ZM40.3337 41.7084C41.0931 41.7084 41.7087 41.0928 41.7087 40.3334C41.7087 39.574 41.0931 38.9584 40.3337 38.9584V41.7084ZM26.5837 40.3334H25.2087C25.2087 41.0928 25.8243 41.7084 26.5837 41.7084V40.3334ZM17.7854 32.5417L16.5947 31.8542L16.5946 31.8543L17.7854 32.5417ZM18.792 31.5352L19.4794 32.7261L19.4796 32.726L18.792 31.5352ZM25.2087 31.5352L24.5211 32.726L24.5213 32.7261L25.2087 31.5352ZM26.2152 32.5417L25.0243 33.2291L25.0244 33.2293L26.2152 32.5417ZM25.667 3.66675H24.292V7.33341H25.667H27.042V3.66675H25.667ZM25.667 7.33341H24.292V11.0001H25.667H27.042V7.33341H25.667ZM25.667 7.33341V5.95841H18.3337V7.33341V8.70842H25.667V7.33341ZM18.3337 3.66675H16.9587V7.33341H18.3337H19.7087V3.66675H18.3337ZM18.3337 7.33341H16.9587V11.0001H18.3337H19.7087V7.33341H18.3337ZM5.50033 40.3334H6.87533V20.8649H5.50033H4.12533V40.3334H5.50033ZM5.50033 20.8649H6.87533C6.87533 17.6116 6.8786 15.318 7.12588 13.5819C7.36631 11.8938 7.81299 10.9362 8.55849 10.2325L7.61465 9.23258L6.67082 8.23269C5.30198 9.52477 4.6915 11.1711 4.40336 13.1941C4.12206 15.1691 4.12533 17.6938 4.12533 20.8649H5.50033ZM7.61465 9.23258L8.55849 10.2325C9.52498 9.32018 10.9533 8.87164 13.8293 8.70614L13.7503 7.33341L13.6713 5.96069C10.6922 6.13212 8.39185 6.60813 6.67081 8.23269L7.61465 9.23258ZM38.5003 40.3334H39.8753V20.8649H38.5003H37.1253V40.3334H38.5003ZM38.5003 20.8649H39.8753C39.8753 17.6938 39.8786 15.1691 39.5973 13.1941C39.3091 11.1711 38.6986 9.52476 37.3298 8.23267L36.3859 9.23258L35.4421 10.2325C36.1876 10.9362 36.6343 11.8939 36.8748 13.5819C37.1221 15.318 37.1253 17.6116 37.1253 20.8649H38.5003ZM36.3859 9.23258L37.3298 8.23273C35.6089 6.60812 33.3085 6.13212 30.3293 5.96069L30.2503 7.33341L30.1713 8.70614C33.0475 8.87164 34.4757 9.32019 35.4421 10.2324L36.3859 9.23258ZM25.667 18.3334V19.7084H29.3337V18.3334V16.9584H25.667V18.3334ZM25.667 25.6667V27.0417H29.3337V25.6667V24.2917H25.667V25.6667ZM12.8337 25.6667V27.0417H16.5003V25.6667V24.2917H12.8337V25.6667ZM12.8337 18.3334V19.7084H16.5003V18.3334V16.9584H12.8337V18.3334ZM3.66699 40.3334V41.7084H17.417V40.3334V38.9584H3.66699V40.3334ZM40.3337 40.3334V38.9584H26.5837V40.3334V41.7084H40.3337V40.3334ZM17.417 40.3334H18.792V35.7501H17.417H16.042V40.3334H17.417ZM17.417 35.7501H18.792C18.792 34.8681 18.7933 34.2985 18.8324 33.8668C18.8698 33.4541 18.933 33.3042 18.9762 33.2292L17.7854 32.5417L16.5946 31.8543C16.2695 32.4175 16.1484 33.0151 16.0937 33.6186C16.0407 34.2032 16.042 34.9187 16.042 35.7501H17.417ZM17.7854 32.5417L18.9762 33.2293C19.0969 33.0203 19.2705 32.8466 19.4794 32.7261L18.792 31.5352L18.1046 30.3444C17.4775 30.7064 16.9567 31.2272 16.5947 31.8542L17.7854 32.5417ZM18.792 31.5352L19.4796 32.726C19.5545 32.6827 19.7043 32.6196 20.1171 32.5822C20.5487 32.5431 21.1183 32.5417 22.0003 32.5417V31.1667V29.7917C21.1689 29.7917 20.4534 29.7904 19.8688 29.8434C19.2653 29.8981 18.6677 30.0193 18.1044 30.3445L18.792 31.5352ZM22.0003 31.1667V32.5417C22.8824 32.5417 23.4519 32.5431 23.8836 32.5822C24.2963 32.6196 24.4462 32.6827 24.5211 32.726L25.2087 31.5352L25.8962 30.3445C25.333 30.0193 24.7354 29.8981 24.1318 29.8434C23.5472 29.7904 22.8317 29.7917 22.0003 29.7917V31.1667ZM25.2087 31.5352L24.5213 32.7261C24.7302 32.8467 24.9037 33.0202 25.0243 33.2291L26.2152 32.5417L27.406 31.8544C27.044 31.2273 26.5232 30.7064 25.896 30.3444L25.2087 31.5352ZM26.2152 32.5417L25.0244 33.2293C25.0677 33.3042 25.1308 33.4541 25.1682 33.8668C25.2073 34.2985 25.2087 34.8681 25.2087 35.7501H26.5837H27.9587C27.9587 34.9187 27.96 34.2032 27.907 33.6186C27.8523 33.015 27.7311 32.4174 27.4059 31.8542L26.2152 32.5417ZM26.5837 35.7501H25.2087V40.3334H26.5837H27.9587V35.7501H26.5837Z" fill="#00AF39"/>
</svg>
