<svg width="25" height="24" viewBox="0 0 25 24" fill="none" xmlns="http://www.w3.org/2000/svg">
<g clip-path="url(#clip0_274_2371)">
<path d="M7.81477 0.0839251C6.53797 0.144165 5.66605 0.347925 4.90381 0.647445C4.11493 0.954885 3.44629 1.36745 2.78101 2.03513C2.11573 2.70281 1.70605 3.37193 1.40077 4.16201C1.10533 4.92593 0.905167 5.79857 0.848767 7.07609C0.792367 8.35361 0.779887 8.76425 0.786127 12.023C0.792367 15.2817 0.806767 15.6902 0.868687 16.9703C0.929647 18.2469 1.13269 19.1186 1.43221 19.881C1.74013 20.6699 2.15221 21.3383 2.82013 22.0038C3.48805 22.6694 4.15669 23.0781 4.94869 23.3838C5.71189 23.6788 6.58477 23.8799 7.86205 23.9358C9.13933 23.9918 9.55045 24.0047 12.8082 23.9985C16.066 23.9922 16.4761 23.9778 17.756 23.9171C19.036 23.8564 19.9031 23.6519 20.6658 23.3538C21.4547 23.0452 22.1236 22.6338 22.7886 21.9657C23.4536 21.2975 23.8631 20.6279 24.1681 19.8374C24.4638 19.0742 24.6647 18.2013 24.7201 16.925C24.776 15.6441 24.7892 15.2351 24.783 11.9769C24.7768 8.71865 24.7621 8.31017 24.7014 7.03049C24.6407 5.75081 24.4374 4.88177 24.1381 4.11881C23.8297 3.32993 23.4181 2.66201 22.7504 1.99601C22.0828 1.33001 21.4127 0.920805 20.6224 0.616485C19.8587 0.321045 18.9863 0.119685 17.709 0.0644851C16.4317 0.00928514 16.0206 -0.00487487 12.7616 0.00136513C9.50269 0.00760513 9.09469 0.0215251 7.81477 0.0839251ZM7.95493 21.777C6.78493 21.7262 6.14965 21.5318 5.72629 21.369C5.16565 21.153 4.76629 20.8919 4.34437 20.4741C3.92245 20.0562 3.66325 19.6554 3.44437 19.096C3.27997 18.6726 3.08197 18.0381 3.02725 16.8681C2.96773 15.6035 2.95525 15.2238 2.94829 12.0201C2.94133 8.81633 2.95357 8.43713 3.00901 7.17209C3.05893 6.00305 3.25453 5.36705 3.41701 4.94393C3.63301 4.38257 3.89317 3.98393 4.31197 3.56225C4.73077 3.14057 5.13037 2.88089 5.69029 2.66201C6.11317 2.49689 6.74773 2.30057 7.91725 2.24489C9.18277 2.18489 9.56197 2.17289 12.7652 2.16593C15.9685 2.15897 16.3487 2.17097 17.6147 2.22664C18.7837 2.27753 19.42 2.4712 19.8426 2.63464C20.4035 2.85065 20.8026 3.11009 21.2243 3.52961C21.646 3.94913 21.9059 4.34729 22.1248 4.90841C22.2901 5.33009 22.4864 5.96441 22.5416 7.13465C22.6019 8.40017 22.6156 8.7796 22.6213 11.9826C22.6271 15.1857 22.6158 15.5661 22.5604 16.8306C22.5092 18.0006 22.3153 18.6362 22.1524 19.06C21.9364 19.6204 21.676 20.02 21.2569 20.4414C20.8379 20.8629 20.4388 21.1226 19.8786 21.3414C19.4562 21.5063 18.8209 21.7031 17.6524 21.7588C16.3868 21.8183 16.0076 21.8308 12.8032 21.8378C9.59869 21.8447 9.22069 21.8318 7.95517 21.777M17.7376 5.58641C17.738 5.87123 17.823 6.14952 17.9816 6.38607C18.1403 6.62262 18.3655 6.80681 18.6288 6.91535C18.8922 7.02389 19.1818 7.05189 19.461 6.99583C19.7403 6.93976 19.9966 6.80214 20.1977 6.60037C20.3987 6.3986 20.5354 6.14174 20.5904 5.86228C20.6455 5.58283 20.6164 5.29333 20.5069 5.03039C20.3974 4.76746 20.2124 4.5429 19.9752 4.38512C19.7381 4.22735 19.4595 4.14344 19.1747 4.14401C18.7929 4.14477 18.427 4.29715 18.1575 4.56764C17.888 4.83813 17.7369 5.20458 17.7376 5.58641ZM6.62317 12.0119C6.62989 15.4151 9.39373 18.1677 12.7962 18.1612C16.1987 18.1547 18.9532 15.3911 18.9467 11.9879C18.9402 8.58473 16.1756 5.83145 12.7727 5.83817C9.36973 5.84489 6.61669 8.60921 6.62317 12.0119ZM8.78461 12.0076C8.78304 11.2165 9.01611 10.4426 9.45434 9.78395C9.89258 9.12527 10.5163 8.61134 11.2466 8.30714C11.9769 8.00294 12.781 7.92213 13.5573 8.07494C14.3335 8.22774 15.047 8.6073 15.6076 9.16561C16.1681 9.72393 16.5505 10.4359 16.7063 11.2115C16.8622 11.9872 16.7846 12.7916 16.4833 13.5231C16.182 14.2547 15.6705 14.8804 15.0136 15.3212C14.3567 15.7621 13.5837 15.9982 12.7926 15.9998C12.2673 16.0009 11.7469 15.8985 11.2612 15.6984C10.7754 15.4984 10.3339 15.2046 9.96166 14.8339C9.58947 14.4632 9.29396 14.0228 9.092 13.5378C8.89003 13.0529 8.78558 12.5329 8.78461 12.0076Z" fill="#33BF61"/>
</g>
<defs>
<clipPath id="clip0_274_2371">
<rect width="24" height="24" fill="white" transform="translate(0.784668)"/>
</clipPath>
</defs>
</svg>
