<svg width="528" height="784" viewBox="0 0 528 784" fill="none" xmlns="http://www.w3.org/2000/svg">
<path d="M527.49 455.09V783.84H417.35V444.94C417.35 390.16 403.84 348.75 376.67 320.85C349.57 292.88 311.74 278.93 263.17 278.93C214.6 278.93 176.76 292.88 149.67 320.85C122.5 348.75 108.99 390.16 108.99 444.94V783.84H0.529785V455.09C0.529785 396.95 11.4098 347.36 33.1798 306.38C54.8698 265.48 85.5498 234.58 125.06 213.62C164.65 192.73 210.95 182.29 264.05 182.29C317.15 182.29 363.46 192.74 402.97 213.62C442.48 234.58 473.16 265.48 494.93 306.38C516.62 347.36 527.51 396.95 527.51 455.09H527.49Z" fill="white"/>
<path d="M97.47 547.63C97.47 547.63 164.18 500.98 233.4 527.57C302.62 554.15 342.75 567.7 430.52 522.05V614.84C430.52 614.84 366.32 659.98 289.07 641.42C211.83 622.86 184.74 591.26 97.46 650.95V547.62L97.47 547.63Z" fill="white"/>
<path d="M368.14 0.160156H159.85C149.909 0.160156 141.85 8.21903 141.85 18.1602V98.9901C141.85 108.931 149.909 116.99 159.85 116.99H368.14C378.081 116.99 386.14 108.931 386.14 98.9901V18.1602C386.14 8.21903 378.081 0.160156 368.14 0.160156Z" fill="#00AF39"/>
</svg>
