<svg width="30" height="24" viewBox="0 0 30 24" fill="none" xmlns="http://www.w3.org/2000/svg">
<g clip-path="url(#clip0_274_2374)">
<path d="M27.8205 22.4509C27.8815 22.4515 27.942 22.4397 27.9982 22.4162C28.0544 22.3927 28.1051 22.358 28.1472 22.3143C28.1893 22.2706 28.2219 22.2188 28.2429 22.1621C28.264 22.1054 28.273 22.045 28.2695 21.9847C28.2695 21.6541 28.068 21.4961 27.6547 21.4961H26.9868V23.2272H27.238V22.4726H27.5467L27.5538 22.4818L28.0328 23.2272H28.3014L27.786 22.4557L27.8205 22.4509ZM27.53 22.2775H27.2387V21.6923H27.6079C27.7986 21.6923 28.0161 21.7231 28.0161 21.9704C28.0161 22.2548 27.796 22.2775 27.5285 22.2775" fill="#33BF61"/>
<path d="M21.2676 20.2814H17.7056V14.7581C17.7056 13.441 17.6818 11.7456 15.853 11.7456C13.9977 11.7456 13.7139 13.1806 13.7139 14.6622V20.2811H10.1519V8.92291H13.5714V10.4751H13.6193C13.9615 9.89577 14.456 9.41916 15.0501 9.09607C15.6443 8.77297 16.3158 8.61549 16.9932 8.64039C20.6034 8.64039 21.2691 10.9917 21.2691 14.0505L21.2676 20.2814ZM6.13275 7.37033C5.72392 7.3704 5.32424 7.25043 4.98427 7.0256C4.6443 6.80076 4.37932 6.48115 4.2228 6.10719C4.06628 5.73323 4.02526 5.32171 4.10495 4.92467C4.18463 4.52763 4.38145 4.16291 4.67048 3.87662C4.95951 3.59033 5.3278 3.39533 5.72876 3.31629C6.12972 3.23724 6.54534 3.2777 6.92307 3.43254C7.30081 3.58739 7.62369 3.84966 7.85088 4.1862C8.07808 4.52274 8.19939 4.91844 8.19946 5.32324C8.19951 5.59202 8.14608 5.85817 8.04225 6.10651C7.93841 6.35485 7.78621 6.58051 7.5943 6.7706C7.40239 6.96069 7.17452 7.11149 6.92375 7.21439C6.67298 7.31729 6.4042 7.37028 6.13275 7.37033ZM7.91375 20.2814H4.34804V8.92291H7.91375V20.2814ZM23.0434 0.00162171H2.55814C2.09318 -0.00357365 1.64514 0.174219 1.3125 0.49593C0.979869 0.817642 0.789854 1.25695 0.78418 1.71732V22.085C0.78966 22.5456 0.979563 22.9852 1.31219 23.3072C1.64481 23.6293 2.09295 23.8074 2.55814 23.8025H23.0434C23.5095 23.8083 23.9589 23.6307 24.2928 23.3086C24.6268 22.9866 24.8179 22.5465 24.8244 22.085V1.71586C24.8177 1.25457 24.6264 0.814759 24.2925 0.493056C23.9585 0.171352 23.5093 -0.00593224 23.0434 0.000151565" fill="#33BF61"/>
<path d="M27.5605 20.7251C27.1271 20.7292 26.713 20.9031 26.4088 21.2087C26.1046 21.5143 25.9349 21.9268 25.937 22.356C25.9391 22.7851 26.1128 23.1959 26.4199 23.4986C26.7271 23.8013 27.1429 23.9713 27.5763 23.9713C28.0097 23.9713 28.4254 23.8013 28.7326 23.4986C29.0398 23.1959 29.2135 22.7851 29.2155 22.356C29.2176 21.9268 29.048 21.5143 28.7438 21.2087C28.4395 20.9031 28.0254 20.7292 27.592 20.7251H27.5605ZM27.5605 23.7854C27.2763 23.7901 26.997 23.7112 26.758 23.5588C26.519 23.4063 26.3311 23.1871 26.2179 22.9288C26.1048 22.6706 26.0715 22.3849 26.1223 22.108C26.1731 21.831 26.3058 21.5752 26.5034 21.3729C26.7011 21.1705 26.9549 21.0308 27.2327 20.9713C27.5106 20.9118 27.8001 20.9352 28.0645 21.0386C28.3289 21.1419 28.5564 21.3206 28.7183 21.5521C28.8802 21.7835 28.9691 22.0572 28.9738 22.3387C28.9738 22.3467 28.9738 22.3545 28.9738 22.3625C28.9818 22.7318 28.8413 23.089 28.5833 23.3557C28.3253 23.6224 27.9709 23.7767 27.598 23.7847H27.5609" fill="#33BF61"/>
</g>
<defs>
<clipPath id="clip0_274_2374">
<rect width="28.4308" height="24" fill="white" transform="translate(0.784668)"/>
</clipPath>
</defs>
</svg>
