<svg width="25" height="24" viewBox="0 0 25 24" fill="none" xmlns="http://www.w3.org/2000/svg">
<path d="M21.4285 11.2015C21.2169 11.2015 21.0139 11.1174 20.8643 10.9678C20.7147 10.8182 20.6306 10.6152 20.6306 10.4036C20.6289 8.71135 19.9559 7.08886 18.7593 5.89224C17.5627 4.69561 15.9402 4.0226 14.2479 4.02091C14.0363 4.02091 13.8334 3.93685 13.6838 3.78723C13.5341 3.63761 13.4501 3.43467 13.4501 3.22307C13.4501 3.01147 13.5341 2.80854 13.6838 2.65891C13.8334 2.50929 14.0363 2.42523 14.2479 2.42523C16.3632 2.42756 18.3912 3.26888 19.8869 4.76462C21.3827 6.26036 22.224 8.28834 22.2263 10.4036C22.2263 10.6152 22.1423 10.8182 21.9926 10.9678C21.843 11.1174 21.6401 11.2015 21.4285 11.2015ZM19.035 10.4036C19.035 9.13403 18.5306 7.91643 17.6329 7.01869C16.7351 6.12094 15.5175 5.61659 14.2479 5.61659C14.0363 5.61659 13.8334 5.70065 13.6838 5.85028C13.5341 5.9999 13.4501 6.20283 13.4501 6.41443C13.4501 6.62603 13.5341 6.82897 13.6838 6.97859C13.8334 7.12822 14.0363 7.21227 14.2479 7.21227C15.0943 7.21227 15.906 7.54851 16.5045 8.147C17.103 8.7455 17.4393 9.55723 17.4393 10.4036C17.4393 10.6152 17.5233 10.8182 17.673 10.9678C17.8226 11.1174 18.0255 11.2015 18.2371 11.2015C18.4487 11.2015 18.6516 11.1174 18.8013 10.9678C18.9509 10.8182 19.035 10.6152 19.035 10.4036ZM20.7766 20.1086L21.5027 19.2716C21.9648 18.808 22.2243 18.1801 22.2243 17.5256C22.2243 16.871 21.9648 16.2431 21.5027 15.7795C21.4779 15.7548 19.5583 14.2779 19.5583 14.2779C19.0976 13.8394 18.4857 13.5952 17.8496 13.5961C17.2135 13.597 16.6023 13.8429 16.1428 14.2827L14.6221 15.5641C13.3808 15.0503 12.2532 14.2964 11.3041 13.3457C10.355 12.3949 9.60305 11.266 9.09147 10.0239L10.368 8.50797C10.8082 8.04855 11.0544 7.43717 11.0554 6.80091C11.0565 6.16465 10.8123 5.55247 10.3736 5.09161C10.3736 5.09161 8.8952 3.1744 8.87046 3.14967C8.41526 2.69151 7.79807 2.43083 7.15226 2.42397C6.50644 2.4171 5.88385 2.66459 5.41901 3.11297L4.50149 3.91081C-0.919036 10.1994 10.7534 21.7816 17.2494 21.5734C17.9054 21.5772 18.5554 21.4495 19.1613 21.198C19.7671 20.9464 20.3163 20.5759 20.7766 20.1086Z" fill="#33BF61"/>
</svg>
