<svg width="52" height="52" viewBox="0 0 52 52" fill="none" xmlns="http://www.w3.org/2000/svg">
<path d="M10.722 31.2666C9.65477 33.9596 7.9679 36.6256 5.70892 39.1917C4.99005 40.0081 4.89879 41.1737 5.48199 42.0918C5.93109 42.7979 6.68645 43.2002 7.48626 43.2002C7.7116 43.2002 7.94092 43.1685 8.16705 43.1026C12.9548 41.7037 24.1227 36.7351 24.4226 20.8533C24.5385 14.7207 20.0531 9.45211 14.2124 8.8586C10.9933 8.53644 7.7727 9.58223 5.38598 11.7396C2.99609 13.8994 1.625 16.9828 1.625 20.2003C1.625 25.568 5.43517 30.2621 10.722 31.2666ZM7.56481 14.1509C9.08269 12.7791 10.9933 12.0483 13.019 12.0483C13.3055 12.0483 13.5943 12.0626 13.8839 12.0927C18.0551 12.5156 21.2567 16.3369 21.1726 20.7914C20.9655 31.7808 15.0154 36.728 10.088 38.9409C11.6472 36.8319 12.8723 34.6626 13.7435 32.4639C14.0831 31.6078 14.0267 30.6509 13.5895 29.8384C13.1317 28.9862 12.3152 28.3816 11.3512 28.1793C7.59814 27.3945 4.875 24.0382 4.875 20.2003C4.875 17.9008 5.8557 15.6958 7.56481 14.1509Z" fill="#00AF39"/>
<path d="M31.433 42.0919C31.8821 42.798 32.6374 43.2003 33.4372 43.2003C33.6626 43.2003 33.8911 43.1686 34.118 43.1027C38.9058 41.7039 50.0729 36.7352 50.3728 20.8534C50.487 14.7208 46.0024 9.4522 40.161 8.8587C36.938 8.53101 33.7229 9.58154 31.3362 11.7397C28.9463 13.8995 27.5752 16.9829 27.5752 20.2004C27.5752 25.5681 31.3854 30.2622 36.6714 31.2667C35.6034 33.9621 33.9165 36.6281 31.6583 39.1926C30.9394 40.0098 30.849 41.1746 31.433 42.0919ZM39.6928 32.4656C40.0324 31.6095 39.9769 30.6526 39.5405 29.8401C39.0819 28.9871 38.2662 28.3825 37.3014 28.1794C33.5483 27.3947 30.8252 24.0383 30.8252 20.2004C30.8252 17.9001 31.8059 15.6959 33.515 14.1511C35.0321 12.7792 36.9427 12.0484 38.9692 12.0484C39.2548 12.0484 39.5437 12.0627 39.8341 12.0928C44.0045 12.5157 47.2069 16.337 47.1228 20.7915C46.9165 31.7817 40.9656 36.7281 36.0382 38.941C37.5965 36.8336 38.82 34.6643 39.6928 32.4656Z" fill="#00AF39"/>
</svg>
