<svg width="44" height="44" viewBox="0 0 44 44" fill="none" xmlns="http://www.w3.org/2000/svg">
<path d="M29.333 10.9996C32.7899 10.9996 34.5184 10.9996 35.5924 12.0735C36.6663 13.1475 36.6663 14.876 36.6663 18.3329V32.9997C36.6663 36.4566 36.6663 38.1851 35.5924 39.259C34.5184 40.333 32.7899 40.333 29.333 40.333H14.6663C11.2094 40.333 9.48089 40.333 8.40696 39.259C7.33301 38.1851 7.33301 36.4566 7.33301 32.9997V10.9996M29.333 10.9996H7.33301M29.333 10.9996C29.333 7.70609 29.333 6.05936 28.5738 5.06576C28.0814 4.42146 27.3911 3.95876 26.6103 3.74954C25.4064 3.42691 23.8948 4.06027 20.8714 5.32701L7.33301 10.9996M21.9997 20.1663C25.0373 20.1663 27.4997 22.6287 27.4997 25.6663M21.9997 20.1663C18.962 20.1663 16.4997 22.6287 16.4997 25.6663M21.9997 20.1663V18.3329M27.4997 25.6663H16.4997M27.4997 25.6663H29.333M16.4997 25.6663H14.6663M14.6663 32.9997H29.333" stroke="#00AF39" stroke-width="2.75" stroke-linecap="round" stroke-linejoin="round"/>
</svg>
