<svg width="40" height="40" viewBox="0 0 40 40" fill="none" xmlns="http://www.w3.org/2000/svg">
<path d="M3.33301 5C6.43929 5 7.99242 5 9.21756 5.50747C10.8511 6.1841 12.1489 7.48192 12.8255 9.11545C13.333 10.3406 13.333 11.8937 13.333 15C10.2267 15 8.67359 15 7.44846 14.4925C5.81492 13.8159 4.51711 12.5181 3.84047 10.8845C3.33301 9.65942 3.33301 8.10628 3.33301 5Z" stroke="#00AF39" stroke-width="2.5" stroke-linejoin="round"/>
<path d="M19.9997 8.33337C17.9288 8.33337 16.8933 8.33337 16.0766 8.67169C14.9876 9.12277 14.1224 9.98799 13.6713 11.077C13.333 11.8938 13.333 12.9292 13.333 15C15.4039 15 16.4393 15 17.256 14.6617C18.345 14.2106 19.2103 13.3454 19.6613 12.2564C19.9997 11.4397 19.9997 10.4042 19.9997 8.33337Z" stroke="#00AF39" stroke-width="2.5" stroke-linejoin="round"/>
<path d="M13.333 15V23.3333" stroke="#00AF39" stroke-width="2.5" stroke-linecap="round"/>
<path d="M19.9997 23.3334H3.33301" stroke="#00AF39" stroke-width="2.5" stroke-linecap="round"/>
<path d="M19.9997 28.3334H3.33301" stroke="#00AF39" stroke-width="2.5" stroke-linecap="round"/>
<path d="M19.9997 33.3334H3.33301" stroke="#00AF39" stroke-width="2.5" stroke-linecap="round"/>
<path d="M26.667 30.839C26.667 28.747 28.4223 26.6795 29.6543 25.4861C30.3235 24.838 31.3438 24.838 32.013 25.4861C33.245 26.6795 35.0003 28.747 35.0003 30.839C35.0003 32.8901 33.4225 35 30.8337 35C28.2448 35 26.667 32.8901 26.667 30.839Z" stroke="#00AF39" stroke-width="2.5"/>
</svg>
