<svg id="visual" viewBox="0 0 900 600" width="900" height="600" xmlns="http://www.w3.org/2000/svg" xmlns:xlink="http://www.w3.org/1999/xlink" version="1.1"><path d="M0 521L12.5 526.2C25 531.3 50 541.7 75 538.2C100 534.7 125 517.3 150 509.7C175 502 200 504 225 512.5C250 521 275 536 300 540C325 544 350 537 375 534.8C400 532.7 425 535.3 450 529C475 522.7 500 507.3 525 513.2C550 519 575 546 600 556.2C625 566.3 650 559.7 675 550.5C700 541.3 725 529.7 750 520.5C775 511.3 800 504.7 825 507.5C850 510.3 875 522.7 887.5 528.8L900 535L900 601L887.5 601C875 601 850 601 825 601C800 601 775 601 750 601C725 601 700 601 675 601C650 601 625 601 600 601C575 601 550 601 525 601C500 601 475 601 450 601C425 601 400 601 375 601C350 601 325 601 300 601C275 601 250 601 225 601C200 601 175 601 150 601C125 601 100 601 75 601C50 601 25 601 12.5 601L0 601Z" fill="#ffffff" stroke-linecap="round" stroke-linejoin="miter"></path></svg>