<svg width="22" height="21" viewBox="0 0 22 21" fill="none" xmlns="http://www.w3.org/2000/svg">
<path d="M10.8361 0H10.8309C5.04143 0 0.333496 4.70925 0.333496 10.5C0.333496 12.7969 1.07375 14.9257 2.33243 16.6543L1.02387 20.5551L5.05981 19.2649C6.72012 20.3647 8.70068 21 10.8361 21C16.6256 21 21.3335 16.2894 21.3335 10.5C21.3335 4.71056 16.6256 0 10.8361 0ZM16.9458 14.8273C16.6925 15.5426 15.6871 16.1359 14.8852 16.3091C14.3366 16.4259 13.6199 16.5191 11.2076 15.519C8.12187 14.2406 6.13475 11.1051 5.97987 10.9016C5.83156 10.6982 4.733 9.24131 4.733 7.73456C4.733 6.22781 5.49818 5.49412 5.80662 5.17913C6.05993 4.92056 6.47862 4.80244 6.88025 4.80244C7.01018 4.80244 7.127 4.809 7.232 4.81425C7.54043 4.82737 7.69531 4.84575 7.89875 5.33269C8.15206 5.943 8.76893 7.44975 8.84243 7.60463C8.91725 7.7595 8.99206 7.9695 8.88706 8.17294C8.78862 8.38294 8.702 8.47612 8.54712 8.65462C8.39225 8.83313 8.24525 8.96963 8.09037 9.16125C7.94862 9.32794 7.7885 9.50644 7.967 9.81488C8.1455 10.1167 8.76237 11.1234 9.67062 11.9319C10.8427 12.9754 11.7929 13.3088 12.1329 13.4505C12.3862 13.5555 12.6881 13.5306 12.8731 13.3337C13.1081 13.0804 13.3981 12.6604 13.6934 12.2469C13.9034 11.9503 14.1686 11.9136 14.4468 12.0186C14.7303 12.117 16.2305 12.8586 16.5389 13.0121C16.8474 13.167 17.0508 13.2405 17.1256 13.3704C17.1991 13.5004 17.1991 14.1107 16.9458 14.8273Z" fill="#33BF61"/>
</svg>
